# xmcd
#
# Track frame offsets:
#	150
#	19144
#	32507
#	44911
#	56707
#	68969
#	81025
#	93937
#	103437
#	117394
#	131104
#	143405
#	153974
#	165170
#	179096
#
# Disc length: 2698 seconds
#
# Revision: 1
# Processed by: cddbd v1.5.2PL0 Copyright (c) Steve Scherf et al.
# Submitted via: audiograbber 1.83.01
#
DISCID=cf0a880f
DTITLE=Various Artist - Vintage Chicago Blues
DYEAR=2009
DGENRE=Blues
TTITLE0=Magic Sam - Sweet Home Chicago
TTITLE1=Buddy Guy - This is the End
TTITLE2=Eddie Boyd - The Blues is Here to Stay
TTITLE3=Robert Nighthawk - Kansas City Blues
TTITLE4=Figure Head - Figure Head
TTITLE5=Hound Dog Taylor - Baby is Coming Home
TTITLE6=Junior Wells - Snatch It Back and Hold It
TTITLE7=Koko Taylor - Honky Tonky
TTITLE8=Otis Rush - I Can't Quit You Baby
TTITLE9=Big Walter Horton - Hard Hearted Woman
TTITLE10=Luther Allison - Gotta Move On Up
TTITLE11=Sunnyland Slim - It's You Baby
TTITLE12=Eddy Clearwater - Hillbilly Blues
TTITLE13=James Cotton - One More Mile
TTITLE14=Magic Slim - Just To Be With You
EXTD=
EXTT0=
EXTT1=
EXTT2=
EXTT3=
EXTT4=
EXTT5=
EXTT6=
EXTT7=
EXTT8=
EXTT9=
EXTT10=
EXTT11=
EXTT12=
EXTT13=
EXTT14=
PLAYORDER=
